<svg width="351" height="32" viewBox="0 0 351 32" fill="none" xmlns="http://www.w3.org/2000/svg">
<path d="M13.208 15.44C12.9093 15.44 12.6533 15.344 12.44 15.152C12.248 14.96 12.152 14.704 12.152 14.384C12.152 14.0853 12.248 13.84 12.44 13.648C12.632 13.456 12.888 13.36 13.208 13.36H19.672V10.64H15C14.6587 10.64 14.392 10.5333 14.2 10.32C14.0293 10.0853 13.944 9.84 13.944 9.584C13.944 9.24267 14.0613 8.99733 14.296 8.848C14.5307 8.67733 14.7653 8.592 15 8.592H19.672V5.808H13.592C13.3147 5.808 13.0587 5.712 12.824 5.52C12.6107 5.328 12.504 5.072 12.504 4.752C12.504 4.38933 12.6213 4.13333 12.856 3.984C13.112 3.81333 13.3573 3.728 13.592 3.728H19.672V1.424C19.672 1.18933 19.768 0.965332 19.96 0.751999C20.152 0.517333 20.3973 0.4 20.696 0.4C20.9947 0.4 21.24 0.506666 21.432 0.719999C21.6453 0.911999 21.752 1.14667 21.752 1.424V3.728H28.536C28.8347 3.728 29.08 3.824 29.272 4.016C29.4853 4.208 29.592 4.45333 29.592 4.752C29.592 5.05067 29.4853 5.30667 29.272 5.52C29.08 5.712 28.8347 5.808 28.536 5.808H21.752V8.592H27.288C27.5867 8.592 27.832 8.688 28.024 8.88C28.2373 9.05067 28.344 9.28533 28.344 9.584C28.344 9.88267 28.248 10.1387 28.056 10.352C27.864 10.544 27.608 10.64 27.288 10.64H21.752V13.36H29.048C29.4107 13.36 29.6773 13.4773 29.848 13.712C30.0187 13.9253 30.104 14.1493 30.104 14.384C30.104 14.6827 29.9973 14.9387 29.784 15.152C29.592 15.344 29.3467 15.44 29.048 15.44H13.208ZM6.072 24.912C4.792 24.912 3.75733 24.656 2.968 24.144C2.2 23.632 1.624 22.928 1.24 22.032C0.856 21.1147 0.6 20.0587 0.472 18.864C0.344 17.6693 0.28 16.3787 0.28 14.992C0.28 13.4133 0.322667 12.0053 0.408 10.768C0.514667 9.53067 0.749333 8.48533 1.112 7.632C1.496 6.75733 2.08267 6.096 2.872 5.648C3.66133 5.2 4.73867 4.976 6.104 4.976C7.768 4.976 9.016 5.40267 9.848 6.256C10.68 7.10933 11.2347 8.29333 11.512 9.808C11.7893 11.3013 11.928 13.0293 11.928 14.992C11.928 16.528 11.864 17.904 11.736 19.12C11.608 20.336 11.3413 21.3813 10.936 22.256C10.552 23.1093 9.96533 23.7707 9.176 24.24C8.408 24.688 7.37333 24.912 6.072 24.912ZM6.104 22.8C7.32 22.8 8.184 22.5013 8.696 21.904C9.22933 21.3067 9.56 20.432 9.688 19.28C9.816 18.1067 9.88 16.6773 9.88 14.992C9.88 13.904 9.848 12.88 9.784 11.92C9.72 10.96 9.57067 10.1173 9.336 9.392C9.10133 8.66667 8.728 8.10133 8.216 7.696C7.704 7.26933 7 7.056 6.104 7.056C4.90933 7.056 4.04533 7.312 3.512 7.824C2.97867 8.31467 2.648 9.06133 2.52 10.064C2.41333 11.0667 2.36 12.3467 2.36 13.904H7.608C8.312 13.904 8.664 14.2667 8.664 14.992C8.664 15.2267 8.568 15.4507 8.376 15.664C8.184 15.8773 7.928 15.984 7.608 15.984H2.36C2.38133 17.2427 2.456 18.3947 2.584 19.44C2.712 20.464 3.032 21.2853 3.544 21.904C4.07733 22.5013 4.93067 22.8 6.104 22.8ZM26.136 31.088C25.9013 31.088 25.6773 30.9813 25.464 30.768C25.2507 30.5547 25.144 30.3093 25.144 30.032C25.144 29.9467 25.1653 29.84 25.208 29.712C25.6133 28.3253 25.912 27.0347 26.104 25.84C26.296 24.624 26.392 23.568 26.392 22.672C26.392 21.5627 26.232 20.7307 25.912 20.176C25.592 19.6 25.0587 19.216 24.312 19.024C23.5867 18.8107 22.5947 18.704 21.336 18.704C20.568 18.704 19.768 18.736 18.936 18.8C18.1253 18.864 17.4533 18.9387 16.92 19.024C16.8773 19.0453 16.8133 19.056 16.728 19.056C16.6 19.056 16.4933 19.0347 16.408 18.992C16.408 19.0347 16.3867 19.216 16.344 19.536C16.3013 19.8347 16.2587 20.1547 16.216 20.496C16.1947 20.816 16.1733 21.04 16.152 21.168H23.736C24.0347 21.168 24.28 21.2747 24.472 21.488C24.6853 21.68 24.792 21.9253 24.792 22.224C24.792 22.5013 24.696 22.736 24.504 22.928C24.312 23.12 24.056 23.216 23.736 23.216H15.896L15.768 25.136H22.808C23.1067 25.136 23.3413 25.232 23.512 25.424C23.704 25.616 23.8 25.8507 23.8 26.128C23.8 26.4053 23.704 26.6507 23.512 26.864C23.3413 27.0773 23.1067 27.184 22.808 27.184H15.672C15.6507 27.5893 15.6293 27.9947 15.608 28.4C15.608 28.8053 15.608 29.3493 15.608 30.032C15.5867 30.3093 15.48 30.544 15.288 30.736C15.1173 30.9493 14.8933 31.056 14.616 31.056C14.3173 31.056 14.0613 30.96 13.848 30.768C13.656 30.576 13.56 30.3413 13.56 30.064C13.56 28.8267 13.6027 27.4507 13.688 25.936C13.7733 24.4 13.8907 22.8747 14.04 21.36C14.2107 19.824 14.392 18.448 14.584 17.232C14.648 16.9333 14.776 16.7093 14.968 16.56C15.16 16.4107 15.3627 16.336 15.576 16.336C15.768 16.336 15.9493 16.4 16.12 16.528C16.312 16.6347 16.4507 16.7947 16.536 17.008C18.456 16.752 20.12 16.624 21.528 16.624C24.1093 16.624 25.912 17.1147 26.936 18.096C27.96 19.056 28.472 20.592 28.472 22.704C28.472 23.536 28.408 24.4853 28.28 25.552C28.152 26.4267 28.0027 27.248 27.832 28.016C27.6613 28.784 27.4373 29.5733 27.16 30.384C27.0747 30.6187 26.9253 30.7893 26.712 30.896C26.52 31.024 26.328 31.088 26.136 31.088ZM39.576 29.072C39.2347 29.072 38.9787 28.9547 38.808 28.72C38.6587 28.5067 38.584 28.2933 38.584 28.08V20.688C37.8373 21.52 37.08 22.3947 36.312 23.312C35.544 24.208 34.9573 24.976 34.552 25.616C34.3387 25.9147 34.072 26.064 33.752 26.064C33.56 26.064 33.3787 26 33.208 25.872C32.888 25.7013 32.728 25.4453 32.728 25.104C32.728 24.8907 32.8133 24.6667 32.984 24.432L38.584 16.4V9.424H33.816C33.4747 9.424 33.2187 9.31733 33.048 9.104C32.8987 8.89067 32.824 8.66667 32.824 8.432C32.824 7.77067 33.1547 7.44 33.816 7.44H38.584V3.728C38.584 3.38667 38.6907 3.14133 38.904 2.992C39.1387 2.82133 39.3627 2.736 39.576 2.736C39.832 2.736 40.056 2.82133 40.248 2.992C40.4613 3.16267 40.568 3.408 40.568 3.728V7.44H45.304C45.9867 7.44 46.328 7.696 46.328 8.208C46.2853 8.57067 46.1467 8.95467 45.912 9.36C45.3147 10.3413 44.8133 11.1413 44.408 11.76C44.024 12.3573 43.7467 12.7733 43.576 13.008C44.5147 12.2827 45.3893 11.6533 46.2 11.12C47.0107 10.5867 47.7467 10.1387 48.408 9.776C49.496 9.2 50.52 8.752 51.48 8.432C52.44 8.112 53.3147 7.952 54.104 7.952C55.5547 7.952 56.5573 8.464 57.112 9.488C57.6667 10.4907 57.944 11.7813 57.944 13.36C57.944 13.616 57.8907 14.0853 57.784 14.768C57.6987 15.4507 57.592 16.2507 57.464 17.168C57.336 18.064 57.1973 18.992 57.048 19.952C56.92 20.912 56.8027 21.808 56.696 22.64C56.6107 23.472 56.568 24.1333 56.568 24.624C56.568 25.264 56.6533 25.7973 56.824 26.224C57.016 26.6507 57.3467 26.864 57.816 26.864C58.2427 26.864 58.5947 26.7147 58.872 26.416C59.1707 26.1173 59.4587 25.6693 59.736 25.072C59.9493 24.688 60.2373 24.496 60.6 24.496C60.8987 24.496 61.112 24.592 61.24 24.784C61.3893 24.9547 61.464 25.168 61.464 25.424C61.464 25.9147 61.272 26.416 60.888 26.928C60.5253 27.44 60.056 27.8667 59.48 28.208C58.904 28.5493 58.328 28.72 57.752 28.72C56.8347 28.72 56.0987 28.336 55.544 27.568C54.9893 26.8213 54.712 25.84 54.712 24.624C54.712 23.8347 54.776 22.928 54.904 21.904C55.0533 20.88 55.2133 19.824 55.384 18.736C55.576 17.6267 55.736 16.5707 55.864 15.568C56.0133 14.5653 56.088 13.712 56.088 13.008C56.088 11.8773 55.864 11.0773 55.416 10.608C54.9893 10.1173 54.4347 9.872 53.752 9.872C52.984 9.872 52.1093 10.096 51.128 10.544C50.168 10.992 49.1973 11.5573 48.216 12.24C47.4267 12.752 46.584 13.3707 45.688 14.096C44.8133 14.8 43.928 15.5467 43.032 16.336C42.1573 17.1253 41.336 17.8933 40.568 18.64V28.08C40.568 28.4213 40.4613 28.6667 40.248 28.816C40.0347 28.9867 39.8107 29.072 39.576 29.072ZM40.568 13.584L43.448 9.424H40.568V13.584ZM80.536 29.296C78.2747 29.296 76.2693 28.848 74.52 27.952C72.7707 27.056 71.3947 25.7973 70.392 24.176C69.4107 22.5333 68.92 20.6347 68.92 18.48C68.92 16.7093 69.3147 15.0453 70.104 13.488C70.8933 11.9093 72.0027 10.5333 73.432 9.36L70.2 5.008C70.0507 4.83733 69.976 4.64533 69.976 4.432C69.976 4.09067 70.1147 3.84533 70.392 3.696C70.6267 3.568 70.8187 3.504 70.968 3.504C71.1387 3.504 71.2773 3.54667 71.384 3.632C71.512 3.696 71.6187 3.78133 71.704 3.888L74.968 8.272C76.7813 7.14133 78.7653 6.37333 80.92 5.968C83.0747 5.54133 85.2507 5.34933 87.448 5.392C87.7467 5.392 87.96 5.47733 88.088 5.648C88.2373 5.79733 88.312 5.97867 88.312 6.192C88.312 6.512 88.216 6.768 88.024 6.96C87.832 7.152 87.5867 7.248 87.288 7.248C85.2187 7.20533 83.2347 7.376 81.336 7.76C79.4587 8.144 77.7093 8.816 76.088 9.776L77.176 11.216C77.3253 11.3867 77.4 11.5787 77.4 11.792C77.4 12.0693 77.2613 12.3253 76.984 12.56C76.8347 12.6667 76.664 12.72 76.472 12.72C76.152 12.72 75.8747 12.592 75.64 12.336L74.552 10.864C73.3787 11.824 72.4613 12.9547 71.8 14.256C71.16 15.5573 70.84 16.9333 70.84 18.384C70.84 20.2613 71.2667 21.872 72.12 23.216C72.9733 24.56 74.1467 25.584 75.64 26.288C77.1333 27.0133 78.84 27.376 80.76 27.376C82.7013 27.376 84.664 27.0133 86.648 26.288C86.8187 26.2453 86.936 26.224 87 26.224C87.2773 26.224 87.5227 26.32 87.736 26.512C87.9707 26.704 88.088 26.9493 88.088 27.248C88.088 27.568 87.9067 27.8027 87.544 27.952C85.1547 28.848 82.8187 29.296 80.536 29.296ZM118.36 17.456C117.976 17.456 117.699 17.2213 117.528 16.752L116.952 14.608H103.832C103.491 14.608 103.245 14.512 103.096 14.32C102.968 14.1067 102.904 13.8827 102.904 13.648C102.904 13.3707 102.979 13.1467 103.128 12.976C103.299 12.8053 103.533 12.72 103.832 12.72H116.44L114.968 7.152H103.256C102.915 7.152 102.669 7.056 102.52 6.864C102.392 6.65067 102.328 6.42667 102.328 6.192C102.328 5.91467 102.413 5.69067 102.584 5.52C102.755 5.34933 102.979 5.264 103.256 5.264H114.488L114.008 3.44C113.987 3.376 113.965 3.32267 113.944 3.28C113.944 3.216 113.944 3.16267 113.944 3.12C113.944 2.88533 114.04 2.68267 114.232 2.512C114.424 2.34133 114.669 2.256 114.968 2.256C115.16 2.256 115.341 2.32 115.512 2.448C115.683 2.55467 115.789 2.72533 115.832 2.96L116.44 5.264H122.2C122.541 5.264 122.776 5.36 122.904 5.552C123.053 5.744 123.128 5.95733 123.128 6.192C123.128 6.46933 123.043 6.704 122.872 6.896C122.723 7.06667 122.499 7.152 122.2 7.152H116.92L118.392 12.72H121.944C122.285 12.72 122.52 12.816 122.648 13.008C122.797 13.2 122.872 13.4133 122.872 13.648C122.872 13.9253 122.787 14.16 122.616 14.352C122.467 14.5227 122.243 14.608 121.944 14.608H118.904L119.32 16.272C119.405 16.6773 119.331 16.976 119.096 17.168C118.861 17.36 118.616 17.456 118.36 17.456ZM115.448 28.688C114.168 28.944 112.824 29.072 111.416 29.072C110.008 29.072 108.621 28.9227 107.256 28.624C105.891 28.3467 104.664 27.9093 103.576 27.312C102.253 26.5867 101.272 25.6693 100.632 24.56C100.013 23.4293 99.704 22.2027 99.704 20.88C99.704 20.24 99.768 19.5893 99.896 18.928C100.045 18.2667 100.248 17.6053 100.504 16.944C100.632 16.5813 100.877 16.4 101.24 16.4C101.517 16.4 101.752 16.496 101.944 16.688C102.157 16.8587 102.264 17.0933 102.264 17.392C102.264 17.4347 102.264 17.4987 102.264 17.584C102.264 17.648 102.243 17.712 102.2 17.776C102.008 18.352 101.859 18.9067 101.752 19.44C101.645 19.952 101.592 20.4533 101.592 20.944C101.592 22.1387 101.891 23.1733 102.488 24.048C103.107 24.9227 104.035 25.6053 105.272 26.096C106.168 26.4587 107.149 26.7253 108.216 26.896C109.304 27.088 110.403 27.184 111.512 27.184C112.749 27.184 113.955 27.0667 115.128 26.832C115.448 26.7893 115.704 26.8533 115.896 27.024C116.088 27.1947 116.195 27.3867 116.216 27.6C116.28 28.1973 116.024 28.56 115.448 28.688ZM143.256 29.36C141.592 29.36 140.056 29.0827 138.648 28.528C137.24 27.9947 136.013 27.2373 134.968 26.256C133.944 25.2747 133.144 24.1227 132.568 22.8C131.992 21.456 131.704 19.9947 131.704 18.416C131.704 16.7093 132.099 15.0667 132.888 13.488C133.699 11.9093 134.808 10.5333 136.216 9.36L132.984 5.008C132.835 4.83733 132.76 4.64533 132.76 4.432C132.76 4.09067 132.899 3.84533 133.176 3.696C133.368 3.568 133.56 3.504 133.752 3.504C134.051 3.504 134.296 3.632 134.488 3.888L137.752 8.272C139.523 7.14133 141.496 6.37333 143.672 5.968C145.848 5.54133 148.035 5.34933 150.232 5.392C150.531 5.392 150.744 5.47733 150.872 5.648C151.021 5.79733 151.096 5.97867 151.096 6.192C151.096 6.512 151 6.768 150.808 6.96C150.616 7.152 150.371 7.248 150.072 7.248C148.024 7.20533 146.051 7.376 144.152 7.76C142.253 8.144 140.493 8.816 138.872 9.776L139.928 11.216C140.077 11.3867 140.152 11.5787 140.152 11.792C140.152 12.0693 140.013 12.3253 139.736 12.56C139.565 12.7093 139.384 12.784 139.192 12.784C138.936 12.784 138.68 12.6347 138.424 12.336L137.336 10.864C136.163 11.824 135.245 12.9547 134.584 14.256C133.944 15.5573 133.624 16.9333 133.624 18.384C133.624 20.176 134.051 21.7547 134.904 23.12C135.779 24.464 136.952 25.5093 138.424 26.256C139.917 27.024 141.592 27.408 143.448 27.408C144.429 27.408 145.421 27.3013 146.424 27.088C147.448 26.896 148.451 26.6293 149.432 26.288C149.603 26.2453 149.72 26.224 149.784 26.224C150.061 26.224 150.307 26.32 150.52 26.512C150.755 26.704 150.872 26.9493 150.872 27.248C150.872 27.568 150.691 27.8027 150.328 27.952C149.155 28.3787 147.971 28.72 146.776 28.976C145.603 29.232 144.429 29.36 143.256 29.36ZM155.512 9.936L152.44 7.056C152.227 6.864 152.12 6.66133 152.12 6.448C152.12 6.23467 152.216 6.01067 152.408 5.776C152.6 5.584 152.813 5.488 153.048 5.488C153.261 5.488 153.475 5.57333 153.688 5.744L156.76 8.624C156.952 8.816 157.048 9.02933 157.048 9.264C157.048 9.52 156.963 9.73333 156.792 9.904C156.579 10.096 156.344 10.192 156.088 10.192C155.875 10.192 155.683 10.1067 155.512 9.936ZM152.504 12.752L149.464 9.872C149.251 9.68 149.144 9.46667 149.144 9.232C149.144 8.99733 149.24 8.784 149.432 8.592C149.624 8.4 149.837 8.304 150.072 8.304C150.285 8.304 150.499 8.38933 150.712 8.56L153.752 11.44C153.944 11.632 154.04 11.8453 154.04 12.08C154.04 12.336 153.955 12.5493 153.784 12.72C153.635 12.912 153.421 13.008 153.144 13.008C152.888 13.008 152.675 12.9227 152.504 12.752ZM182.36 17.456C181.976 17.456 181.699 17.2213 181.528 16.752L180.952 14.608H167.832C167.491 14.608 167.245 14.512 167.096 14.32C166.968 14.1067 166.904 13.8827 166.904 13.648C166.904 13.3707 166.979 13.1467 167.128 12.976C167.299 12.8053 167.533 12.72 167.832 12.72H180.44L178.968 7.152H167.256C166.915 7.152 166.669 7.056 166.52 6.864C166.392 6.65067 166.328 6.42667 166.328 6.192C166.328 5.91467 166.413 5.69067 166.584 5.52C166.755 5.34933 166.979 5.264 167.256 5.264H178.488L178.008 3.44C177.987 3.376 177.965 3.32267 177.944 3.28C177.944 3.216 177.944 3.16267 177.944 3.12C177.944 2.88533 178.04 2.68267 178.232 2.512C178.424 2.34133 178.669 2.256 178.968 2.256C179.16 2.256 179.341 2.32 179.512 2.448C179.683 2.55467 179.789 2.72533 179.832 2.96L180.44 5.264H186.2C186.541 5.264 186.776 5.36 186.904 5.552C187.053 5.744 187.128 5.95733 187.128 6.192C187.128 6.46933 187.043 6.704 186.872 6.896C186.723 7.06667 186.499 7.152 186.2 7.152H180.92L182.392 12.72H185.944C186.285 12.72 186.52 12.816 186.648 13.008C186.797 13.2 186.872 13.4133 186.872 13.648C186.872 13.9253 186.787 14.16 186.616 14.352C186.467 14.5227 186.243 14.608 185.944 14.608H182.904L183.32 16.272C183.405 16.6773 183.331 16.976 183.096 17.168C182.861 17.36 182.616 17.456 182.36 17.456ZM179.448 28.688C178.168 28.944 176.824 29.072 175.416 29.072C174.008 29.072 172.621 28.9227 171.256 28.624C169.891 28.3467 168.664 27.9093 167.576 27.312C166.253 26.5867 165.272 25.6693 164.632 24.56C164.013 23.4293 163.704 22.2027 163.704 20.88C163.704 20.24 163.768 19.5893 163.896 18.928C164.045 18.2667 164.248 17.6053 164.504 16.944C164.632 16.5813 164.877 16.4 165.24 16.4C165.517 16.4 165.752 16.496 165.944 16.688C166.157 16.8587 166.264 17.0933 166.264 17.392C166.264 17.4347 166.264 17.4987 166.264 17.584C166.264 17.648 166.243 17.712 166.2 17.776C166.008 18.352 165.859 18.9067 165.752 19.44C165.645 19.952 165.592 20.4533 165.592 20.944C165.592 22.1387 165.891 23.1733 166.488 24.048C167.107 24.9227 168.035 25.6053 169.272 26.096C170.168 26.4587 171.149 26.7253 172.216 26.896C173.304 27.088 174.403 27.184 175.512 27.184C176.749 27.184 177.955 27.0667 179.128 26.832C179.448 26.7893 179.704 26.8533 179.896 27.024C180.088 27.1947 180.195 27.3867 180.216 27.6C180.28 28.1973 180.024 28.56 179.448 28.688ZM204.504 11.216C202.456 11.216 200.717 11.1307 199.288 10.96C197.859 10.768 196.771 10.384 196.024 9.808C195.299 9.21067 194.936 8.28267 194.936 7.024C194.936 6.42666 195.032 5.79733 195.224 5.136C195.437 4.45333 195.693 3.86667 195.992 3.376C196.184 3.056 196.451 2.896 196.792 2.896C197.005 2.896 197.197 2.96 197.368 3.088C197.688 3.28 197.848 3.568 197.848 3.952C197.848 4.144 197.784 4.32533 197.656 4.496C197.507 4.77333 197.357 5.14667 197.208 5.616C197.059 6.064 196.984 6.512 196.984 6.96C196.984 7.62133 197.24 8.112 197.752 8.432C198.264 8.752 198.925 8.96533 199.736 9.072C200.547 9.15733 201.4 9.2 202.296 9.2C202.701 9.2 203.096 9.2 203.48 9.2C203.885 9.17867 204.269 9.168 204.632 9.168H205.784V2.64C205.784 2.34133 205.88 2.096 206.072 1.904C206.264 1.712 206.509 1.616 206.808 1.616C207.085 1.616 207.32 1.712 207.512 1.904C207.704 2.096 207.8 2.34133 207.8 2.64V9.072C209.293 9.02933 210.68 8.96533 211.96 8.88C213.261 8.77333 214.392 8.656 215.352 8.528C216.312 8.37867 217.016 8.24 217.464 8.112C217.421 7.51467 217.347 6.864 217.24 6.16C217.133 5.456 216.963 4.86933 216.728 4.4C216.664 4.25067 216.632 4.10133 216.632 3.952C216.632 3.696 216.717 3.46133 216.888 3.248C217.08 3.03467 217.336 2.928 217.656 2.928C218.083 2.928 218.392 3.10933 218.584 3.472C218.989 4.368 219.256 5.38133 219.384 6.512C219.512 7.62133 219.576 8.624 219.576 9.52C219.576 9.776 219.469 10.0107 219.256 10.224C219.064 10.4373 218.829 10.544 218.552 10.544C218.232 10.544 217.976 10.416 217.784 10.16C217.144 10.3307 216.259 10.48 215.128 10.608C214.019 10.736 212.813 10.8533 211.512 10.96C210.211 11.0453 208.941 11.1093 207.704 11.152C206.467 11.1947 205.4 11.216 204.504 11.216ZM203.32 30.192C202.957 30.0213 202.776 29.712 202.776 29.264C202.776 29.0933 202.819 28.9333 202.904 28.784C203.16 28.336 203.395 27.7067 203.608 26.896C203.843 26.1067 204.035 25.2427 204.184 24.304C204.333 23.3653 204.451 22.4587 204.536 21.584C204.621 20.7093 204.664 19.9733 204.664 19.376C204.664 17.6053 204.344 16.368 203.704 15.664C203.064 14.9387 201.933 14.576 200.312 14.576C199.757 14.576 199.149 14.608 198.488 14.672C197.848 14.736 197.133 14.8213 196.344 14.928C196.28 15.248 196.216 15.6 196.152 15.984C196.088 16.368 196.024 16.784 195.96 17.232L200.888 17.264C201.187 17.264 201.432 17.36 201.624 17.552C201.816 17.744 201.912 17.968 201.912 18.224C201.912 18.5227 201.805 18.768 201.592 18.96C201.4 19.152 201.165 19.248 200.888 19.248L195.608 19.28C195.587 19.4507 195.544 19.7387 195.48 20.144C195.437 20.5493 195.384 20.944 195.32 21.328C195.256 21.6907 195.213 21.936 195.192 22.064L201.336 22.096C201.635 22.096 201.88 22.2027 202.072 22.416C202.285 22.608 202.392 22.832 202.392 23.088C202.392 23.408 202.285 23.664 202.072 23.856C201.88 24.048 201.635 24.144 201.336 24.144H195C194.915 24.7627 194.851 25.456 194.808 26.224C194.765 26.992 194.744 27.8667 194.744 28.848C194.744 29.168 194.627 29.4133 194.392 29.584C194.179 29.7547 193.965 29.84 193.752 29.84C193.496 29.84 193.272 29.7547 193.08 29.584C192.888 29.4347 192.781 29.232 192.76 28.976C192.739 28.8267 192.728 28.6667 192.728 28.496C192.728 28.3253 192.728 28.1333 192.728 27.92C192.728 27.152 192.771 26.2133 192.856 25.104C192.963 23.9947 193.091 22.832 193.24 21.616C193.389 20.3787 193.549 19.184 193.72 18.032C193.912 16.8587 194.093 15.8133 194.264 14.896C194.456 13.9573 194.627 13.2427 194.776 12.752C194.947 12.2827 195.277 12.048 195.768 12.048C196.003 12.048 196.205 12.1227 196.376 12.272C196.568 12.4213 196.707 12.6027 196.792 12.816C197.389 12.7307 197.955 12.6773 198.488 12.656C199.043 12.6133 199.565 12.592 200.056 12.592C202.467 12.592 204.173 13.1253 205.176 14.192C206.179 15.2587 206.68 17.008 206.68 19.44C206.68 20.208 206.637 21.072 206.552 22.032C206.467 22.992 206.339 23.9627 206.168 24.944C205.997 25.9253 205.784 26.832 205.528 27.664C205.293 28.5173 205.016 29.2213 204.696 29.776C204.483 30.1813 204.216 30.384 203.896 30.384C203.704 30.384 203.512 30.32 203.32 30.192ZM218.52 30.608C218.179 30.608 217.912 30.4907 217.72 30.256C217.549 30.0427 217.464 29.808 217.464 29.552C217.464 29.36 217.507 29.2 217.592 29.072C217.848 28.6027 218.083 27.9627 218.296 27.152C218.531 26.3413 218.723 25.456 218.872 24.496C219.043 23.536 219.171 22.6187 219.256 21.744C219.341 20.848 219.384 20.112 219.384 19.536C219.384 17.808 219.053 16.592 218.392 15.888C217.752 15.184 216.611 14.832 214.968 14.832C214.435 14.832 213.837 14.864 213.176 14.928C212.515 14.992 211.8 15.0773 211.032 15.184C210.947 15.632 210.883 15.952 210.84 16.144C210.819 16.336 210.797 16.5173 210.776 16.688C210.755 16.8587 210.712 17.136 210.648 17.52H215.576C215.875 17.52 216.12 17.616 216.312 17.808C216.504 18 216.6 18.2347 216.6 18.512C216.6 18.8107 216.504 19.056 216.312 19.248C216.12 19.44 215.875 19.536 215.576 19.536L210.296 19.568C210.275 19.7387 210.232 20.0267 210.168 20.432C210.104 20.8373 210.051 21.232 210.008 21.616C209.965 22 209.933 22.2453 209.912 22.352L216.056 22.384C216.333 22.384 216.568 22.48 216.76 22.672C216.952 22.864 217.048 23.12 217.048 23.44C217.048 23.696 216.952 23.9307 216.76 24.144C216.568 24.336 216.333 24.432 216.056 24.432H209.688C209.581 25.2853 209.496 25.968 209.432 26.48C209.389 26.992 209.368 27.4507 209.368 27.856C209.368 28.0693 209.379 28.2827 209.4 28.496C209.421 28.7307 209.432 28.976 209.432 29.232C209.432 29.488 209.336 29.7013 209.144 29.872C208.952 30.064 208.717 30.16 208.44 30.16C208.184 30.16 207.949 30.0747 207.736 29.904C207.544 29.7333 207.437 29.52 207.416 29.264C207.395 29.0933 207.384 28.912 207.384 28.72C207.384 28.5493 207.384 28.3573 207.384 28.144C207.384 27.3333 207.427 26.384 207.512 25.296C207.619 24.208 207.747 23.0667 207.896 21.872C208.045 20.6773 208.205 19.5147 208.376 18.384C208.568 17.232 208.749 16.1867 208.92 15.248C209.112 14.3093 209.293 13.5627 209.464 13.008C209.677 12.56 209.987 12.336 210.392 12.336C210.904 12.336 211.256 12.5813 211.448 13.072C212.109 12.9867 212.717 12.9333 213.272 12.912C213.848 12.8693 214.403 12.848 214.936 12.848C217.304 12.848 218.968 13.3493 219.928 14.352C220.909 15.3333 221.4 17.008 221.4 19.376C221.4 20.1653 221.347 21.0613 221.24 22.064C221.155 23.0667 221.016 24.0907 220.824 25.136C220.653 26.16 220.44 27.1093 220.184 27.984C219.949 28.8587 219.683 29.5627 219.384 30.096C219.149 30.4373 218.861 30.608 218.52 30.608ZM239.672 30.416C238.84 30.416 238.179 30.224 237.688 29.84C237.219 29.456 236.877 28.9333 236.664 28.272C236.451 27.632 236.344 26.9387 236.344 26.192C236.344 25.9147 236.355 25.6373 236.376 25.36C236.397 25.0613 236.429 24.7733 236.472 24.496C235.981 24.9867 235.587 25.4453 235.288 25.872C235.096 26.1707 234.829 26.32 234.488 26.32C234.275 26.32 234.072 26.256 233.88 26.128C233.56 25.9147 233.4 25.616 233.4 25.232C233.4 25.0187 233.464 24.8373 233.592 24.688C233.848 24.3253 234.243 23.8667 234.776 23.312C235.331 22.736 235.928 22.1387 236.568 21.52C237.208 20.9013 237.805 20.336 238.36 19.824H234.84C234.563 19.824 234.317 19.728 234.104 19.536C233.891 19.344 233.784 19.088 233.784 18.768C233.784 18.4907 233.891 18.256 234.104 18.064C234.317 17.8507 234.563 17.744 234.84 17.744H242.744V16.56C241.08 16.56 239.587 16.4427 238.264 16.208C236.963 15.952 235.939 15.472 235.192 14.768C234.445 14.064 234.072 13.0293 234.072 11.664C234.072 10.256 234.424 9.22133 235.128 8.56C235.832 7.87733 236.824 7.42933 238.104 7.216C239.384 6.98133 240.877 6.84267 242.584 6.8V5.68H235.064C234.787 5.68 234.541 5.584 234.328 5.392C234.136 5.17867 234.04 4.93333 234.04 4.656C234.04 4.31467 234.147 4.05867 234.36 3.888C234.595 3.71733 234.829 3.632 235.064 3.632H242.584V1.904C242.584 1.60533 242.68 1.36 242.872 1.168C243.064 0.975999 243.32 0.879999 243.64 0.879999C243.939 0.879999 244.184 0.975999 244.376 1.168C244.568 1.36 244.664 1.60533 244.664 1.904V3.632H252.152C252.451 3.632 252.696 3.728 252.888 3.92C253.08 4.112 253.176 4.35733 253.176 4.656C253.176 4.93333 253.08 5.17867 252.888 5.392C252.696 5.584 252.451 5.68 252.152 5.68H244.664V6.8C246.371 6.84267 247.853 6.97067 249.112 7.184C250.392 7.39733 251.384 7.84533 252.088 8.528C252.792 9.18933 253.144 10.2347 253.144 11.664C253.144 12.6667 252.909 13.488 252.44 14.128C251.992 14.7467 251.373 15.2373 250.584 15.6C249.816 15.9413 248.931 16.1867 247.928 16.336C246.947 16.464 245.912 16.528 244.824 16.528V17.744H252.76C253.123 17.744 253.389 17.8507 253.56 18.064C253.731 18.2773 253.816 18.512 253.816 18.768C253.816 19.0667 253.72 19.3227 253.528 19.536C253.336 19.728 253.08 19.824 252.76 19.824H241.368C241.347 19.8667 241.208 20.0053 240.952 20.24C240.696 20.4747 240.397 20.7413 240.056 21.04C239.736 21.3387 239.427 21.6267 239.128 21.904C238.829 22.16 238.627 22.352 238.52 22.48C238.755 22.7573 238.84 23.0773 238.776 23.44C238.584 24.5493 238.488 25.488 238.488 26.256C238.488 26.8107 238.563 27.3013 238.712 27.728C238.861 28.1547 239.171 28.368 239.64 28.368C240.045 28.368 240.461 28.1867 240.888 27.824C241.336 27.4827 241.731 27.1413 242.072 26.8C242.243 26.5653 242.499 26.448 242.84 26.448C243.096 26.448 243.32 26.512 243.512 26.64C243.789 26.832 243.928 27.088 243.928 27.408C243.928 27.6213 243.853 27.8453 243.704 28.08C243.448 28.336 243.139 28.6453 242.776 29.008C242.413 29.3707 241.976 29.6907 241.464 29.968C240.973 30.2667 240.376 30.416 239.672 30.416ZM224.632 23.408C224.333 23.408 224.077 23.312 223.864 23.12C223.672 22.928 223.576 22.6827 223.576 22.384C223.576 22.0853 223.683 21.84 223.896 21.648C224.109 21.456 224.355 21.36 224.632 21.36C225.229 21.36 225.816 21.328 226.392 21.264C226.968 21.1787 227.533 21.1147 228.088 21.072V11.504H225.176C224.899 11.504 224.653 11.408 224.44 11.216C224.227 11.024 224.12 10.7893 224.12 10.512C224.12 10.1707 224.237 9.91467 224.472 9.744C224.707 9.57333 224.941 9.488 225.176 9.488H228.088V4.784C228.088 4.48533 228.184 4.24 228.376 4.048C228.568 3.856 228.813 3.76 229.112 3.76C229.453 3.76 229.709 3.87733 229.88 4.112C230.051 4.32533 230.136 4.54933 230.136 4.784V9.488H233.048C233.411 9.488 233.677 9.59467 233.848 9.808C234.019 10.0213 234.104 10.256 234.104 10.512C234.104 10.7893 233.997 11.024 233.784 11.216C233.592 11.408 233.347 11.504 233.048 11.504H230.136V20.848C230.819 20.7413 231.352 20.6667 231.736 20.624C232.12 20.5813 232.429 20.5387 232.664 20.496C232.899 20.4533 233.144 20.4107 233.4 20.368C233.464 20.3467 233.549 20.336 233.656 20.336C233.933 20.336 234.168 20.4427 234.36 20.656C234.552 20.848 234.648 21.0933 234.648 21.392C234.648 21.648 234.563 21.8613 234.392 22.032C234.221 22.2027 234.029 22.32 233.816 22.384C233.347 22.4907 232.696 22.608 231.864 22.736C231.053 22.8427 230.179 22.9493 229.24 23.056C228.301 23.1627 227.416 23.248 226.584 23.312C225.773 23.376 225.123 23.408 224.632 23.408ZM241.688 14.448C241.901 14.4693 242.104 14.4907 242.296 14.512C242.488 14.512 242.691 14.512 242.904 14.512C243.245 14.512 243.619 14.512 244.024 14.512C244.429 14.4907 244.931 14.4693 245.528 14.448C245.443 14.3413 245.4 14.2027 245.4 14.032C245.4 13.968 245.4 13.9147 245.4 13.872C245.421 13.808 245.432 13.7653 245.432 13.744C245.496 13.3387 245.56 12.88 245.624 12.368C245.688 11.8347 245.741 11.312 245.784 10.8C245.827 10.2667 245.848 9.82933 245.848 9.488C245.848 9.232 245.912 9.02933 246.04 8.88C245.891 8.85867 245.56 8.848 245.048 8.848C244.557 8.848 244.035 8.848 243.48 8.848C242.925 8.848 242.424 8.848 241.976 8.848C241.528 8.848 241.272 8.85867 241.208 8.88C241.315 9.008 241.368 9.21067 241.368 9.488C241.368 10.064 241.4 10.64 241.464 11.216C241.549 11.7707 241.667 12.6133 241.816 13.744C241.837 13.7867 241.848 13.8507 241.848 13.936C241.848 14.0427 241.827 14.1493 241.784 14.256C241.763 14.3413 241.731 14.4053 241.688 14.448ZM239.832 14.352C239.832 14.3307 239.789 14.064 239.704 13.552C239.619 13.04 239.533 12.4107 239.448 11.664C239.363 10.9173 239.32 10.192 239.32 9.488C239.32 9.296 239.352 9.12533 239.416 8.976C238.264 9.104 237.421 9.36 236.888 9.744C236.376 10.1067 236.12 10.7467 236.12 11.664C236.12 12.6667 236.461 13.3387 237.144 13.68C237.848 14.0213 238.744 14.2453 239.832 14.352ZM247.416 14.32C248.483 14.2133 249.357 13.968 250.04 13.584C250.744 13.2 251.096 12.56 251.096 11.664C251.096 10.7253 250.808 10.0747 250.232 9.712C249.656 9.328 248.845 9.08267 247.8 8.976C247.821 9.14667 247.832 9.33867 247.832 9.552C247.853 9.744 247.864 9.94667 247.864 10.16C247.864 10.8427 247.821 11.5573 247.736 12.304C247.651 13.0293 247.544 13.7013 247.416 14.32ZM251.832 29.968C251.299 29.7973 250.659 29.5307 249.912 29.168C249.165 28.8053 248.376 28.3787 247.544 27.888C246.733 27.3973 245.933 26.8853 245.144 26.352C244.355 25.8187 243.64 25.3067 243 24.816C242.381 24.304 241.891 23.856 241.528 23.472C241.379 23.3227 241.304 23.12 241.304 22.864C241.304 22.4587 241.432 22.1813 241.688 22.032C241.901 21.8827 242.125 21.808 242.36 21.808C242.68 21.808 242.936 21.936 243.128 22.192C243.277 22.384 243.512 22.6293 243.832 22.928C244.173 23.2053 244.525 23.4827 244.888 23.76C245.251 24.0373 245.549 24.2507 245.784 24.4C245.869 24.208 246.019 24.0693 246.232 23.984L250.456 21.84C250.605 21.7547 250.765 21.712 250.936 21.712C251.235 21.712 251.469 21.8187 251.64 22.032C251.832 22.2453 251.928 22.48 251.928 22.736C251.928 22.9493 251.864 23.1413 251.736 23.312C251.629 23.4827 251.512 23.6107 251.384 23.696L247.608 25.616C248.355 26.064 249.176 26.512 250.072 26.96C250.989 27.408 251.779 27.7493 252.44 27.984C252.653 28.0267 252.824 28.1333 252.952 28.304C253.101 28.496 253.176 28.7093 253.176 28.944C253.176 29.264 253.059 29.52 252.824 29.712C252.589 29.9253 252.355 30.032 252.12 30.032C252.056 30.032 251.96 30.0107 251.832 29.968ZM285.336 7.248L282.2 4.304C281.987 4.112 281.88 3.888 281.88 3.632C281.88 3.39733 281.976 3.184 282.168 2.992C282.381 2.77867 282.605 2.672 282.84 2.672C283.053 2.672 283.267 2.768 283.48 2.96L286.616 5.904C286.808 6.096 286.904 6.32 286.904 6.576C286.904 6.832 286.819 7.04533 286.648 7.216C286.456 7.408 286.221 7.504 285.944 7.504C285.709 7.504 285.507 7.41867 285.336 7.248ZM282.296 10.128L279.16 7.184C278.947 6.992 278.84 6.78933 278.84 6.576C278.84 6.448 278.861 6.32 278.904 6.192C278.968 6.064 279.032 5.95733 279.096 5.872C279.288 5.68 279.512 5.584 279.768 5.584C280.003 5.584 280.227 5.66933 280.44 5.84L283.544 8.784C283.757 8.976 283.864 9.2 283.864 9.456C283.864 9.73333 283.779 9.936 283.608 10.064C283.373 10.2773 283.139 10.384 282.904 10.384C282.712 10.384 282.509 10.2987 282.296 10.128ZM264.312 29.936C263.971 29.9573 263.715 29.872 263.544 29.68C263.373 29.5093 263.288 29.3173 263.288 29.104C263.224 28.528 263.501 28.176 264.12 28.048C265.784 27.8773 267.363 27.44 268.856 26.736C270.371 26.0533 271.747 25.1573 272.984 24.048C274.243 22.9173 275.331 21.6267 276.248 20.176C277.187 18.7253 277.901 17.168 278.392 15.504C278.648 14.736 278.851 14.064 279 13.488C279.171 12.8907 279.256 12.3787 279.256 11.952C279.256 11.3973 279.096 10.9707 278.776 10.672C278.456 10.3733 277.923 10.1813 277.176 10.096C275.768 9.904 274.296 9.76533 272.76 9.68C271.224 9.59467 269.464 9.552 267.48 9.552C266.243 9.552 264.877 9.57333 263.384 9.616C261.912 9.63733 260.269 9.68 258.456 9.744C258.136 9.76533 257.891 9.68 257.72 9.488C257.549 9.27467 257.464 9.05067 257.464 8.816C257.464 8.53867 257.539 8.31467 257.688 8.144C257.859 7.952 258.093 7.856 258.392 7.856C259.523 7.81333 260.792 7.78133 262.2 7.76C263.629 7.71733 265.091 7.696 266.584 7.696C267.907 7.696 269.197 7.70667 270.456 7.728C271.715 7.74933 272.867 7.792 273.912 7.856C274.979 7.89867 275.853 7.96267 276.536 8.048C278.221 8.26133 279.395 8.63467 280.056 9.168C280.739 9.70133 281.08 10.4907 281.08 11.536C281.08 12.0907 280.995 12.7307 280.824 13.456C280.675 14.1813 280.461 15.0027 280.184 15.92C279.416 18.48 278.253 20.7733 276.696 22.8C275.16 24.8267 273.325 26.4587 271.192 27.696C269.08 28.9547 266.787 29.7013 264.312 29.936ZM311.928 28.944C311.672 28.944 311.448 28.8587 311.256 28.688C311.085 28.5387 311 28.336 311 28.08C311 27.824 311.064 27.504 311.192 27.12H294.2C294.2 27.568 294.115 27.888 293.944 28.08C293.773 28.272 293.56 28.368 293.304 28.368C293.027 28.3893 292.792 28.3147 292.6 28.144C292.429 27.9947 292.323 27.7707 292.28 27.472L291 8.272C290.979 7.93067 291.064 7.68533 291.256 7.536C291.448 7.36533 291.651 7.26933 291.864 7.248C292.483 7.248 292.824 7.54667 292.888 8.144L292.92 8.56C294.712 8.304 296.589 8.09067 298.552 7.92C300.536 7.728 302.371 7.632 304.056 7.632C306.659 7.632 308.845 7.83467 310.616 8.24C312.387 8.624 313.72 9.37067 314.616 10.48C315.512 11.568 315.96 13.168 315.96 15.28C315.96 16.048 315.896 16.912 315.768 17.872C315.555 19.6 315.171 21.3493 314.616 23.12C314.083 24.8907 313.464 26.64 312.76 28.368C312.589 28.752 312.312 28.944 311.928 28.944ZM294.072 25.264H311.928C312.205 24.496 312.472 23.6533 312.728 22.736C313.005 21.8187 313.24 20.9013 313.432 19.984C313.645 19.0667 313.795 18.224 313.88 17.456C313.923 17.0293 313.955 16.6347 313.976 16.272C314.019 15.9093 314.04 15.5573 314.04 15.216C314.04 13.872 313.816 12.816 313.368 12.048C312.92 11.2587 312.259 10.6827 311.384 10.32C310.509 9.95733 309.421 9.73333 308.12 9.648C306.819 9.54133 305.315 9.488 303.608 9.488C301.837 9.53067 300.056 9.648 298.264 9.84C296.493 10.0107 294.755 10.224 293.048 10.48L294.072 25.264ZM349.016 6.928L345.88 3.984C345.667 3.77067 345.56 3.54667 345.56 3.312C345.56 3.09867 345.645 2.88533 345.816 2.672C346.008 2.45867 346.232 2.352 346.488 2.352C346.744 2.352 346.968 2.448 347.16 2.64L350.296 5.584C350.488 5.776 350.584 6 350.584 6.256C350.584 6.512 350.499 6.72533 350.328 6.896C350.072 7.10933 349.837 7.216 349.624 7.216C349.411 7.216 349.208 7.12 349.016 6.928ZM334.36 29.84C334.189 29.9467 334.019 30 333.848 30C333.528 30 333.251 29.8613 333.016 29.584C332.909 29.4347 332.856 29.2747 332.856 29.104C332.856 28.7413 332.995 28.4533 333.272 28.24C333.869 27.856 334.499 27.2907 335.16 26.544C335.843 25.8187 336.525 24.9867 337.208 24.048C337.891 23.088 338.541 22.0853 339.16 21.04C339.779 19.9947 340.323 18.9707 340.792 17.968C341.283 16.9653 341.667 16.0587 341.944 15.248C342.2 14.5227 342.392 13.8613 342.52 13.264C342.669 12.6667 342.744 12.1227 342.744 11.632C342.744 10.4373 342.307 9.552 341.432 8.976C340.557 8.4 339.16 8.016 337.24 7.824C336.28 7.696 335.203 7.632 334.008 7.632C332.899 7.632 331.715 7.67467 330.456 7.76C329.219 7.824 327.981 7.90933 326.744 8.016L323.96 17.456C323.917 17.712 323.8 17.8933 323.608 18C323.416 18.0853 323.224 18.128 323.032 18.128C322.755 18.128 322.531 18.0533 322.36 17.904C322.189 17.7333 322.104 17.5093 322.104 17.232C322.104 17.104 322.115 16.9973 322.136 16.912L325.496 5.52C325.581 5.28533 325.699 5.11467 325.848 5.008C326.019 4.90133 326.189 4.848 326.36 4.848C326.659 4.848 326.915 4.96533 327.128 5.2C327.363 5.41333 327.437 5.69067 327.352 6.032C328.867 5.968 330.083 5.91467 331 5.872C331.939 5.808 332.685 5.76533 333.24 5.744C333.795 5.72267 334.264 5.712 334.648 5.712C335.011 5.712 335.363 5.73333 335.704 5.776C336.067 5.79733 336.515 5.82933 337.048 5.872C339.629 6.14933 341.517 6.72533 342.712 7.6C343.928 8.45333 344.536 9.76533 344.536 11.536C344.536 12.496 344.355 13.648 343.992 14.992C343.651 16.272 343.139 17.6373 342.456 19.088C341.773 20.5387 340.984 21.9573 340.088 23.344C339.213 24.7307 338.275 25.9893 337.272 27.12C336.291 28.2507 335.32 29.1573 334.36 29.84ZM345.976 9.808L342.84 6.864C342.627 6.65067 342.52 6.42667 342.52 6.192C342.52 5.95733 342.616 5.744 342.808 5.552C343 5.33867 343.224 5.232 343.48 5.232C343.715 5.232 343.928 5.328 344.12 5.52L347.224 8.464C347.437 8.67733 347.544 8.90133 347.544 9.136C347.544 9.37067 347.448 9.584 347.256 9.776C347.064 9.968 346.829 10.064 346.552 10.064C346.317 10.064 346.125 9.97867 345.976 9.808Z" fill="black"/>
</svg>
